:SAMPLES-PER-SECOND 30
:FULLY-SPECIFIED
:DEGREES
102
root  77.3372 38.0124 0.565773 -24.3387 -83.7064 21.4708
RightUpLeg  11.2161 -9.45932 -6.44301
RightLeg  12.8514 8.47801 0.719491
RightFoot  -20.5886 -0.175049 -0.447507
RightToes  -6.40286e-010 0 -3.6325e-017
Spine  1.60901 1.49241 9.09267
Spine1  8.58974 3.35912 -6.62515
HEad  -4.25618 -8.62294 -2.48272
LeftShoulder1  -0.651012 5.14261 -33.5551
LeftArm  -3.699 14.2185 -41.2163
LeftForeArm  25.7783 -14.1523 -6.24614
LeftHand  0.0476873 10.1572 2.36437
RightShoulder  -0.495502 -5.01105 26.0464
RightArm  23.7229 14.9163 52.0634
RightForeArm  5.08653 20.1671 4.95677
RightHand  -0.145818 6.12818 -1.81802
LeftUpLeg  -19.2394 4.52 -1.73972
LeftLeg  10.6763 1.98376 0.114849
LeftFoot  2.72124 0.45616 -3.89428
LeftToes  1.32783e-010 1.73515e-011 1.59258e-011
103
root  76.5028 37.8969 0.859283 -30.0119 -83.7893 27.4803
RightUpLeg  12.15 -8.95058 -7.49145
RightLeg  13.056 8.72813 0.609442
RightFoot  -21.4155 -0.0846924 0.686526
RightToes  -6.40286e-010 0 -3.6325e-017
Spine  1.11051 1.63667 8.18114
Spine1  8.95275 3.64972 -7.22192
HEad  -4.6798 -9.23724 -2.02133
LeftShoulder1  -0.60256 5.02799 -33.3615
LeftArm  -3.06828 14.0735 -41.2936
LeftForeArm  23.9052 -15.1927 -5.94437
LeftHand  0.147047 10.1977 4.21198
RightShoulder  -0.470349 -4.92958 26.1272
RightArm  24.0801 14.4578 51.8653
RightForeArm  6.11081 19.8092 5.02172
RightHand  -0.219797 5.29009 -2.68937
LeftUpLeg  -19.5657 4.55973 -3.00575
LeftLeg  12.8085 2.64621 0.581356
LeftFoot  5.18744 -0.028199 -0.0221539
LeftToes  1.32783e-010 1.73515e-011 1.59258e-011
104
root  75.5998 37.8133 1.16375 -40.2528 -84.0228 37.8306
RightUpLeg  12.8701 -6.47592 -8.24827
RightLeg  14.0503 7.68225 0.25001
RightFoot  -21.9892 0.0923951 2.57724
RightToes  -6.40286e-010 0 -3.6325e-017
Spine  1.12428 1.9561 6.13571
Spine1  8.75708 3.86472 -6.82248
HEad  -4.8518 -9.25985 -1.82759
LeftShoulder1  -0.705339 5.26613 -33.8647
LeftArm  -2.24705 13.6356 -40.8188
LeftForeArm  24.5182 -15.724 -5.80264
LeftHand  -0.00606292 6.34974 2.81407
RightShoulder  -0.496 -5.00079 26.3112
RightArm  24.7785 13.4633 51.4128
RightForeArm  6.30831 18.8724 5.37323
RightHand  -0.295053 5.71179 -3.40216
LeftUpLeg  -19.9391 5.57519 -4.43234
LeftLeg  15.971 1.6964 0.707163
LeftFoot  5.16422 -0.617333 4.04545
LeftToes  1.32783e-010 1.73515e-011 1.59258e-011
105
root  74.6883 37.6728 1.50672 -46.8065 -83.5796 44.0997
RightUpLeg  13.2245 -2.56668 -8.77001
RightLeg  17.0221 4.71558 0.46597
RightFoot  -22.629 0.364899 5.22072
RightToes  -6.40286e-010 0 -3.6325e-017
Spine  1.51609 1.90328 4.79624
Spine1  8.55189 3.88771 -7.22809
HEad  -4.70143 -9.64443 -1.78902
LeftShoulder1  -0.631437 5.08833 -33.6684
LeftArm  -2.68511 12.6875 -41.0431
LeftForeArm  24.3765 -15.0941 -6.05583
LeftHand  0.0790805 9.01555 4.05832
RightShoulder  -0.519533 -5.04615 26.8384
RightArm  23.9796 11.9546 51.1236
RightForeArm  7.60953 17.0444 6.03073
RightHand  -0.33366 6.06248 -3.70908
LeftUpLeg  -19.9715 4.63153 -5.53632
LeftLeg  19.8313 2.79679 1.45845
LeftFoot  2.43963 -0.503201 4.05528
LeftToes  1.32783e-010 1.73515e-011 1.59258e-011
106
root  73.8886 37.6055 1.85189 -48.9863 -82.7792 45.8081
RightUpLeg  12.6527 0.535475 -9.40144
RightLeg  21.9492 2.43856 0.98955
RightFoot  -22.1807 0.763844 9.67555
RightToes  -6.40286e-010 0 -3.6325e-017
Spine  3.0686 1.65324 3.54618
Spine1  7.51442 3.65797 -8.22385
HEad  -4.2185 -10.3207 -1.67522
LeftShoulder1  -0.522695 4.8366 -33.0827
LeftArm  -4.37106 11.5029 -41.527
LeftForeArm  26.9708 -13.3218 -6.41004
LeftHand  0.00540583 7.83736 1.72674
RightShoulder  -0.628986 -5.32445 27.8452
RightArm  22.2669 10.0015 50.5172
RightForeArm  10.9327 14.6754 6.8535
RightHand  -0.262931 6.02582 -3.00173
LeftUpLeg  -19.0788 4.19425 -6.6588
LeftLeg  21.9704 3.04236 1.68661
LeftFoot  0.141029 -0.485902 4.81023
LeftToes  1.32783e-010 1.73515e-011 1.59258e-011
